<svg xmlns="http://www.w3.org/2000/svg" width="29.697" height="29.078" viewBox="0 0 29.697 29.078">
  <g id="github" transform="translate(0 -5.329)">
    <g id="Groupe_1" data-name="Groupe 1" transform="translate(0 5.329)">
      <path id="Tracé_2" data-name="Tracé 2" d="M14.846,5.329a14.916,14.916,0,0,0-4.69,29.053c.742.137,1.013-.323,1.013-.718,0-.355-.013-1.292-.02-2.535-4.13.9-5-2-5-2A3.937,3.937,0,0,0,4.5,26.948c-1.349-.924.1-.906.1-.906a3.119,3.119,0,0,1,2.274,1.537A3.156,3.156,0,0,0,11.2,28.817a3.182,3.182,0,0,1,.943-1.993c-3.3-.377-6.763-1.656-6.763-7.367a5.778,5.778,0,0,1,1.529-4,5.372,5.372,0,0,1,.145-3.944s1.247-.4,4.083,1.528a14.015,14.015,0,0,1,7.435,0c2.834-1.928,4.08-1.528,4.08-1.528a5.38,5.38,0,0,1,.148,3.944,5.767,5.767,0,0,1,1.526,4c0,5.726-3.471,6.986-6.778,7.355a3.566,3.566,0,0,1,1.008,2.76c0,1.993-.019,3.6-.019,4.089,0,.4.267.863,1.021.716A14.918,14.918,0,0,0,14.846,5.329Z" transform="translate(0 -5.329)" fill="#e2dcc8"/>
    </g>
  </g>
</svg>
