<svg xmlns="http://www.w3.org/2000/svg" width="29" height="29" viewBox="0 0 29 29">
  <g id="linkedin" transform="translate(0 -0.157)">
    <g id="Groupe_4" data-name="Groupe 4" transform="translate(0 9.219)">
      <g id="Groupe_3" data-name="Groupe 3">
        <rect id="Rectangle_8" data-name="Rectangle 8" width="6.485" height="19.938" fill="#e2dcc8"/>
      </g>
    </g>
    <g id="Groupe_6" data-name="Groupe 6" transform="translate(9.063 9.219)">
      <g id="Groupe_5" data-name="Groupe 5">
        <path id="Tracé_4" data-name="Tracé 4" d="M175.087,160.234c-.069-.022-.134-.045-.207-.065s-.174-.036-.263-.051a5.812,5.812,0,0,0-1.164-.118,9.011,9.011,0,0,0-6.969,3.812V160H160v19.938h6.485V169.063s4.9-6.826,6.969-1.812v12.688h6.483V166.483A6.466,6.466,0,0,0,175.087,160.234Z" transform="translate(-160 -160)" fill="#e2dcc8"/>
      </g>
    </g>
    <g id="Groupe_8" data-name="Groupe 8" transform="translate(0 0.078)">
      <g id="Groupe_7" data-name="Groupe 7">
        <circle id="Ellipse_1" data-name="Ellipse 1" cx="3" cy="3" r="3" transform="translate(0 0.078)" fill="#e2dcc8"/>
      </g>
    </g>
  </g>
</svg>
