<svg xmlns="http://www.w3.org/2000/svg" width="35.692" height="29" viewBox="0 0 35.692 29">
  <g id="twitter" transform="translate(0 -48)">
    <g id="Groupe_2" data-name="Groupe 2" transform="translate(0 48)">
      <path id="Tracé_3" data-name="Tracé 3" d="M35.692,51.433a15.256,15.256,0,0,1-4.216,1.156A7.276,7.276,0,0,0,34.7,48.544a14.623,14.623,0,0,1-4.64,1.771,7.317,7.317,0,0,0-12.657,5,7.534,7.534,0,0,0,.17,1.669A20.711,20.711,0,0,1,2.485,49.334a7.319,7.319,0,0,0,2.249,9.78,7.226,7.226,0,0,1-3.306-.9v.08a7.351,7.351,0,0,0,5.862,7.19,7.3,7.3,0,0,1-1.918.241A6.47,6.47,0,0,1,3.986,65.6a7.387,7.387,0,0,0,6.837,5.1,14.7,14.7,0,0,1-9.073,3.121A13.705,13.705,0,0,1,0,73.716,20.6,20.6,0,0,0,11.225,77C24.69,77,32.052,65.846,32.052,56.178c0-.323-.011-.636-.027-.946A14.6,14.6,0,0,0,35.692,51.433Z" transform="translate(0 -48)" fill="#e2dcc8"/>
    </g>
  </g>
</svg>
